<svg width="1428" height="439" viewBox="0 0 1428 439" fill="none" xmlns="http://www.w3.org/2000/svg">
<path d="M217 5.00073C133.023 -4.8095 0.5 5.00073 0.5 5.00073V435.5C0.5 435.5 132.72 442.23 217 435.5C281.236 430.37 367.952 404.411 431.721 382.602C489.107 362.976 548.978 347.785 609.314 341.622C687.482 333.638 767.38 333.864 845.476 342.519C896.304 348.152 946.183 360.173 994.917 375.67C1068.02 398.918 1181.56 430.868 1266 435.5C1336.58 439.372 1430.5 435.5 1430.5 435.5V5.00073C1430.5 5.00073 1336.46 -0.679289 1266 5.00031C1129.24 16.0245 1058.1 80.1863 922 97.5C766.264 117.311 672.505 122.394 517.5 97.5C401.615 78.8887 333.577 18.6193 217 5.00073Z" fill="url(#paint0_linear_608_1259)"/>
<defs>
<linearGradient id="paint0_linear_608_1259" x1="23.9999" y1="384" x2="1347" y2="86.9998" gradientUnits="userSpaceOnUse">
<stop stop-color="#F6D3F6"/>
<stop offset="1" stop-color="#9F76E1"/>
</linearGradient>
</defs>
</svg>
